<?xml version="1.0" encoding="utf-8"?>
<!-- Generator: Adobe Illustrator 27.5.0, SVG Export Plug-In . SVG Version: 6.00 Build 0)  -->
<svg version="1.1" id="Layer_1" xmlns="http://www.w3.org/2000/svg" xmlns:xlink="http://www.w3.org/1999/xlink" x="0px" y="0px"
	 viewBox="0 0 5000 2916" style="enable-background:new 0 0 5000 2916;" xml:space="preserve">
<g>
	<rect y="0" style="fill-rule:evenodd;clip-rule:evenodd;fill:#FFFFFF;" width="5000" height="2916"/>
	<path style="fill:#FF3399;" d="M2919.457,1907.75c-4.342-1.948-8.698-3.912-13.046-5.868c-2.648-0.914-5.263-1.761-7.919-2.688
		C2905.49,1902.062,2912.529,1905.004,2919.457,1907.75 M4890.68,1755.738c1.623-1.462,3.242-2.919,4.842-4.363
		c-3.506,2.505-7.019,5.016-10.625,7.576C4886.819,1757.882,4888.78,1756.798,4890.68,1755.738z M2954.802,1921.466
		c-7.129-3.446-14.286-6.938-21.449-10.432c-5.813-1.956-11.64-3.94-17.478-5.938c6.925,3.136,13.867,6.296,20.726,9.325
		C2942.687,1916.798,2948.744,1919.133,2954.802,1921.466z M2972.226,1929.938c-2.361-1.123-4.759-2.308-7.148-3.474
		c-3.34-1.275-6.715-2.606-10.067-3.896C2960.784,1925.082,2966.478,1927.465,2972.226,1929.938z M4913.804,1737.095
		c1.446-1.657,2.892-3.317,4.314-4.953c-3.181,2.899-6.406,5.834-9.68,8.808C4910.227,1739.668,4912.048,1738.359,4913.804,1737.095
		z M4904.1,1748.227c2.371-2.708,4.656-5.34,6.977-8.002c-2.898,2.085-5.806,4.176-8.786,6.313c-2.592,2.348-5.24,4.739-7.896,7.131
		C4897.688,1751.83,4900.885,1750.03,4904.1,1748.227z M4934.313,1716.074l3.712-5.43c-2.79,3.213-5.623,6.48-8.5,9.8
		L4934.313,1716.074z M2986.835,1933.718c-8.709-4.474-17.478-9.04-26.253-13.614c-6.652-2.171-13.332-4.39-20.016-6.621
		c8.317,4.073,16.653,8.17,24.878,12.1C2972.58,1928.305,2979.741,1931.073,2986.835,1933.718z M3015.185,1948.237
		c-7.19-3.626-14.438-7.33-21.714-11.076c-5.923-2.199-11.803-4.333-17.755-6.582c7.538,3.574,14.94,6.95,22.435,10.461
		C3003.823,1943.431,3009.545,1945.897,3015.185,1948.237z M3037.388,1959.267c-3.617-1.798-7.234-3.598-10.836-5.382
		c-2.004-0.826-3.986-1.605-5.996-2.437C3026.17,1954.057,3031.831,1956.741,3037.388,1959.267z M4925.89,1728.384
		c2.048-2.991,4.077-5.953,6.08-8.883l-5.121,4.675l-2.692,2.456c-2.317,2.667-4.596,5.302-6.965,8.024L4925.89,1728.384z
		 M4917.406,1740.735c2.323-3.374,4.64-6.742,6.902-10.04c-3.254,2.347-6.508,4.694-9.861,7.107
		c-2.602,2.989-5.208,5.989-7.881,9.04C4910.248,1744.776,4913.839,1742.748,4917.406,1740.735z M4952.237,1692.907
		c1.042-1.94,2.075-3.87,3.104-5.776c-2.385,3.439-4.802,6.947-7.252,10.514C4949.483,1696.05,4950.864,1694.47,4952.237,1692.907z
		 M4945.102,1706.255c1.735-3.255,3.452-6.468,5.154-9.643c-2.244,2.56-4.513,5.164-6.813,7.802
		c-1.998,2.918-4.025,5.878-6.071,8.873C4939.984,1710.905,4942.562,1708.56,4945.102,1706.255z M4937.928,1719.702l3.761-7.054
		l2.083-3.9c-2.867,2.606-5.779,5.258-8.738,7.956l-0.265,0.387c-2.158,3.156-4.388,6.415-6.602,9.653l0.881-0.639
		L4937.928,1719.702z M4930.701,1733.221c2.096-3.917,4.167-7.79,6.208-11.615l-7.304,5.271l-3.021,2.178
		c-2.394,3.494-4.833,7.044-7.29,10.616C4923.165,1737.485,4926.967,1735.334,4930.701,1733.221z M3015.011,1944.025
		c-9.298-5.038-18.776-10.323-28.216-15.556c-6.938-2.197-13.874-4.39-20.836-6.647c9.321,4.863,18.667,9.757,27.878,14.459
		C3000.923,1938.906,3007.968,1941.464,3015.011,1944.025z M3047.297,1961.285c-8.859-4.723-17.659-9.367-26.568-14.156
		c-6.729-2.431-13.492-4.912-20.261-7.409c8.892,4.52,17.67,8.888,26.479,13.297
		C3033.756,1955.816,3040.53,1958.553,3047.297,1961.285z M3074.706,1975.894c-6.367-3.342-12.84-6.827-19.295-10.282
		c-5.675-2.274-11.401-4.629-17.105-6.952c6.93,3.461,13.886,6.945,20.753,10.312
		C3064.3,1971.315,3069.491,1973.59,3074.706,1975.894z M3094.38,1986.096c-2.138-1.109-4.246-2.178-6.377-3.279
		c-2.615-1.145-5.259-2.333-7.882-3.49C3084.921,1981.653,3089.603,1983.809,3094.38,1986.096z M4967.678,1667.874
		c0.839-2.018,1.679-4.022,2.512-6.001c-1.985,3.584-4,7.245-6.038,10.978C4965.336,1671.171,4966.511,1669.514,4967.678,1667.874z
		 M4961.777,1682.109c1.427-3.465,2.84-6.885,4.24-10.253c-1.931,2.733-3.886,5.517-5.861,8.346
		c-1.698,3.142-3.417,6.328-5.152,9.559C4957.292,1687.164,4959.548,1684.614,4961.777,1682.109z M4955.862,1696.522
		c1.625-3.969,3.229-7.886,4.815-11.746c-2.513,2.831-5.065,5.727-7.655,8.677c-1.921,3.584-3.867,7.22-5.833,10.906
		C4950.126,1701.693,4953.021,1699.082,4955.862,1696.522z M4949.92,1711.07l1.021-2.5l4.094-10.021
		c-3.006,2.708-6.065,5.474-9.18,8.3l-3.329,6.248l-2.85,5.343C4943.155,1715.934,4946.574,1713.473,4949.92,1711.07z
		 M4943.935,1725.718c1.796-4.383,3.565-8.716,5.315-12.995c-3.462,2.488-6.994,5.026-10.59,7.62c-2.109,3.952-4.244,7.954-6.411,12
		l8.432-4.779L4943.935,1725.718z M3044.409,1954.642c-10.338-5.883-20.711-11.814-31.158-17.839
		c-7.225-2.221-14.513-4.549-21.776-6.839c9.917,5.481,19.876,11.02,29.639,16.291
		C3028.885,1949.059,3036.69,1951.923,3044.409,1954.642z M3078.21,1973.701c-9.759-5.462-19.524-10.935-29.381-16.53
		c-7.196-2.523-14.415-5.089-21.653-7.686c9.58,5.137,19.111,10.213,28.624,15.255
		C3063.279,1967.739,3070.789,1970.79,3078.21,1973.701z M3110.345,1991.57c-8.663-4.765-17.428-9.665-26.189-14.563
		c-6.738-2.628-13.465-5.244-20.245-7.944c8.205,4.355,16.378,8.672,24.48,12.885
		C3095.705,1985.145,3103.093,1988.455,3110.345,1991.57z M3140.743,2008.094c-7.617-4.118-15.14-8.118-22.801-12.3
		c-5.04-2.151-10.028-4.223-15.096-6.413c6.121,3.151,12.271,6.34,18.359,9.443
		C3127.686,2001.873,3134.307,2005.116,3140.743,2008.094z M3157.842,2017.316c-1.573-0.844-3.16-1.708-4.74-2.558
		c-1.6-0.733-3.154-1.411-4.757-2.146C3151.535,2014.211,3154.667,2015.732,3157.842,2017.316z M4980.751,1641.34
		c0.665-2.067,1.327-4.11,1.988-6.135c-1.629,3.651-3.269,7.397-4.93,11.223C4978.795,1644.71,4979.776,1643.014,4980.751,1641.34z
		 M4976.02,1656.287c1.138-3.632,2.265-7.208,3.384-10.729c-1.64,2.848-3.294,5.756-4.967,8.721
		c-1.413,3.312-2.837,6.686-4.273,10.108C4972.14,1661.63,4974.09,1658.927,4976.02,1656.287z M4971.311,1671.498
		c1.288-4.196,2.565-8.327,3.832-12.392c-2.184,3.005-4.394,6.086-6.634,9.237c-1.594,3.811-3.2,7.69-4.825,11.627
		C4966.265,1677.079,4968.811,1674.255,4971.311,1671.498z M4966.611,1686.922c1.36-4.496,2.712-8.927,4.048-13.29
		c-2.644,2.92-5.336,5.919-8.069,8.993c-1.684,4.082-3.381,8.234-5.106,12.44
		C4960.582,1692.285,4963.625,1689.567,4966.611,1686.922z M4961.89,1702.516c1.413-4.68,2.811-9.299,4.192-13.856
		c-3.082,2.737-6.223,5.549-9.425,8.428c-1.592,3.894-3.205,7.843-4.836,11.838l-0.45,1.106
		C4954.95,1707.464,4958.458,1704.955,4961.89,1702.516z M4957.131,1718.243c1.418-4.68,2.819-9.314,4.2-13.883l0.108-0.36
		c-3.504,2.497-7.084,5.057-10.742,7.683c-1.788,4.37-3.596,8.799-5.428,13.281
		C4949.314,1722.666,4953.269,1720.427,4957.131,1718.243z M3071.879,1964.097c-10.877-6.447-21.82-12.98-32.816-19.584
		c-7.273-2.163-14.524-4.288-21.832-6.521c10.707,6.178,21.364,12.285,31.939,18.289
		C3056.776,1958.948,3064.32,1961.513,3071.879,1964.097z M3106.789,1984.682c-10.169-5.929-20.49-12.05-30.802-18.163
		c-7.448-2.538-14.909-5.094-22.401-7.709c10.378,5.871,20.626,11.562,30.912,17.307
		C3091.965,1979.03,3099.374,1981.849,3106.789,1984.682z M3141.185,2004.518c-9.801-5.626-19.536-11.168-29.424-16.905
		c-7.084-2.693-14.19-5.425-21.322-8.191c9.309,5.205,18.641,10.441,27.816,15.468
		C3125.946,1998.171,3133.553,2001.324,3141.185,2004.518z M3172.859,2022.638c-8.25-4.664-16.615-9.472-24.979-14.278
		c-6.984-2.903-13.992-5.846-21.026-8.825c8.863,4.801,17.69,9.553,26.505,14.292
		C3159.91,2016.832,3166.357,2019.695,3172.859,2022.638z M3204.321,2040.206c-7.196-4-14.43-8.048-21.659-12.094
		c-5.757-2.585-11.534-5.194-17.33-7.828c7.148,3.825,14.228,7.564,21.307,11.296
		C3192.537,2034.464,3198.46,2037.377,3204.321,2040.206z M3220.822,2049.423c-1.238-0.682-2.502-1.398-3.75-2.093
		c-0.994-0.479-1.977-0.938-2.971-1.413C3216.334,2047.073,3218.597,2048.274,3220.822,2049.423z M4991.66,1613.71
		c0.506-2.091,1.015-4.155,1.525-6.202c-1.323,3.675-2.646,7.446-3.975,11.314C4990.031,1617.093,4990.843,1615.392,4991.66,1613.71
		z M4988.003,1629.17c0.869-3.758,1.733-7.455,2.598-11.082c-1.379,2.909-2.771,5.892-4.165,8.939
		c-1.15,3.445-2.305,6.952-3.465,10.528C4984.664,1634.693,4986.341,1631.895,4988.003,1629.17z M4984.424,1644.991
		c0.969-4.372,1.939-8.67,2.904-12.89c-1.879,3.117-3.775,6.315-5.694,9.607c-1.285,3.993-2.571,8.06-3.873,12.203
		C4980.012,1650.852,4982.232,1647.878,4984.424,1644.991z M4980.887,1661.119c1.019-4.711,2.035-9.345,3.042-13.905
		c-2.313,3.071-4.663,6.241-7.044,9.498c-1.346,4.305-2.7,8.685-4.069,13.138
		C4975.553,1666.852,4978.243,1663.938,4980.887,1661.119z M4977.37,1677.492c1.052-4.929,2.092-9.788,3.125-14.57
		c-2.727,2.926-5.502,5.943-8.332,9.052c-1.383,4.508-2.779,9.092-4.192,13.745
		C4971.169,1682.893,4974.303,1680.149,4977.37,1677.492z M4973.851,1694.07c1.075-5.079,2.138-10.096,3.19-15.034
		c-3.133,2.717-6.33,5.524-9.596,8.416c-1.411,4.653-2.84,9.377-4.29,14.163C4966.807,1699.024,4970.369,1696.507,4973.851,1694.07z
		 M4970.303,1710.818l2.279-10.761l0.981-4.624c-3.536,2.476-7.153,5.033-10.855,7.667l-0.467,1.538
		c-1.285,4.257-2.592,8.572-3.911,12.927C4962.425,1715.249,4966.417,1713.001,4970.303,1710.818z M3099.584,1973.546
		c-11.419-7.015-22.886-14.091-34.449-21.292c-7.448-2.144-14.98-4.445-22.468-6.662c11.29,6.766,22.495,13.419,33.677,20.044
		C3084.09,1968.271,3091.888,1970.994,3099.584,1973.546z M3136.299,1995.908c-11.069-6.706-22.13-13.406-33.32-20.264
		c-7.471-2.468-15.005-5.038-22.53-7.589c10.598,6.28,21.224,12.598,31.66,18.67
		C3120.173,1989.791,3128.296,1992.939,3136.299,1995.908z M3171.734,2017.273c-10.311-6.149-20.78-12.493-31.243-18.831
		c-7.642-2.824-15.338-5.73-23.041-8.643c10.315,5.967,20.543,11.821,30.764,17.669
		C3156.046,2010.723,3163.969,2014.112,3171.734,2017.273z M3207.031,2038.072c-9.95-5.837-19.913-11.695-29.954-17.648
		c-7.348-2.979-14.765-6.052-22.174-9.113c9.411,5.37,18.759,10.659,28.06,15.891
		C3190.96,2030.791,3199.11,2034.587,3207.031,2038.072z M3239.137,2056.78c-8.496-4.915-17.009-9.845-25.595-14.87
		c-6.879-3.011-13.853-6.154-20.789-9.239c8.228,4.612,16.468,9.249,24.593,13.737
		C3224.632,2049.895,3231.916,2053.377,3239.137,2056.78z M3268.585,2073.689c-6.219-3.543-12.507-7.173-18.774-10.783
		c-6.015-2.81-12.165-5.801-18.228-8.673c6.99,3.813,13.919,7.554,20.874,11.322
		C3257.847,2068.285,3263.232,2071.008,3268.585,2073.689z M3286.994,2084.141c-0.69-0.392-1.365-0.76-2.056-1.149
		c-1.033-0.513-2.098-1.07-3.135-1.583C3283.554,2082.343,3285.252,2083.213,3286.994,2084.141z M4997.923,1601.201
		c0.629-3.849,1.267-7.622,1.911-11.325c-1.169,2.936-2.333,5.953-3.496,9.051c-0.913,3.518-1.819,7.115-2.728,10.785
		C4995.056,1606.791,4996.489,1603.953,4997.923,1601.201z M4995.369,1617.439c0.686-4.501,1.375-8.922,2.071-13.249
		c-1.617,3.165-3.244,6.442-4.879,9.817c-0.998,4.116-1.996,8.325-2.994,12.615
		C4991.519,1623.46,4993.454,1620.396,4995.369,1617.439z M4992.91,1634.078c0.7-4.874,1.404-9.663,2.115-14.357
		c-2.023,3.148-4.065,6.42-6.127,9.8c-1.031,4.467-2.065,9.024-3.1,13.667C4988.202,1640.042,4990.572,1637.003,4992.91,1634.078z
		 M4990.516,1651.044c0.712-5.123,1.421-10.164,2.129-15.115c-2.409,3.037-4.856,6.195-7.336,9.465
		c-1.048,4.709-2.1,9.502-3.161,14.378C4984.995,1656.754,4987.781,1653.841,4990.516,1651.044z M4988.164,1668.3
		c0.712-5.305,1.427-10.532,2.135-15.673c-2.792,2.867-5.64,5.848-8.54,8.943c-1.056,4.884-2.121,9.851-3.198,14.892
		C4981.834,1673.638,4985.033,1670.915,4988.164,1668.3z M4985.816,1685.787c0.727-5.437,1.444-10.802,2.159-16.092
		c-3.173,2.662-6.421,5.43-9.74,8.305c-1.069,5.016-2.15,10.11-3.242,15.271C4978.693,1690.685,4982.301,1688.188,4985.816,1685.787
		z M4983.459,1703.481l1.042-7.801l1.146-8.627c-3.55,2.432-7.2,4.961-10.942,7.579l-1.192,5.624l-2.106,9.941
		C4975.542,1707.878,4979.56,1705.64,4983.459,1703.481z M3126.063,1982.09c-11.763-7.46-23.676-15.112-35.612-22.788
		c-7.348-2.047-14.659-4.022-22.049-6.139c11.721,7.298,23.366,14.495,34.927,21.593
		C3110.954,1977.271,3118.492,1979.657,3126.063,1982.09z M3163.856,2005.878c-11.43-7.143-22.945-14.398-34.525-21.73
		c-7.523-2.411-15.034-4.804-22.605-7.294c11.463,7.016,22.776,13.841,34.112,20.697
		C3148.56,2000.399,3156.194,2003.117,3163.856,2005.878z M3200.896,2028.847c-11.04-6.806-22.08-13.616-33.25-20.583
		c-7.521-2.698-15.038-5.396-22.612-8.182c10.851,6.558,21.674,13.076,32.379,19.443
		C3185.301,2022.723,3193.073,2025.75,3200.896,2028.847z M3236.535,2050.72c-10.221-6.209-20.582-12.596-30.952-18.986
		c-7.59-2.993-15.174-5.975-22.83-9.06c10.419,6.181,20.791,12.295,31.089,18.323
		C3221.48,2044.337,3228.964,2047.473,3236.535,2050.72z M3272.035,2072.089c-9.78-5.851-19.624-11.781-29.51-17.761
		c-7.394-3.16-14.759-6.274-22.22-9.522c10.023,5.839,19.905,11.496,29.822,17.205
		C3257.49,2065.449,3264.739,2068.736,3272.035,2072.089z M3305.451,2091.918c-8.729-5.145-17.438-10.265-26.253-15.519
		c-6.502-2.969-12.932-5.844-19.484-8.886c8.588,4.932,17.155,9.839,25.63,14.628
		C3292.121,2085.5,3298.728,2088.634,3305.451,2091.918z M3335.369,2109.5c-6.471-3.763-13.046-7.656-19.601-11.521
		c-5.346-2.589-10.678-5.167-16.059-7.803c6.552,3.663,13.132,7.368,19.647,10.983
		C3324.694,2103.942,3330.067,2106.764,3335.369,2109.5z M3352.57,2119.407c-0.529-0.305-1.054-0.603-1.581-0.907l-1.352-0.687
		C3350.62,2118.35,3351.591,2118.873,3352.57,2119.407z M4997.813,1677.739c0.375-5.754,0.748-11.433,1.119-17.028
		c-3.208,2.563-6.502,5.259-9.877,8.08c-0.721,5.348-1.45,10.778-2.182,16.28
		C4990.625,1682.513,4994.275,1680.067,4997.813,1677.739z M4996.614,1696.28l0.327-5.041l0.796-12.313
		c-3.571,2.353-7.246,4.823-11.036,7.41l-1.259,9.464l-0.95,7.108C4988.674,1700.599,4992.714,1698.387,4996.614,1696.28z
		 M3153.173,1990.807c-12.34-8.053-24.73-16.165-37.223-24.406c-7.427-1.994-14.955-4.172-22.424-6.241
		c12.119,7.78,24.209,15.526,36.167,23.102C3137.513,1985.766,3145.412,1988.392,3153.173,1990.807z M3191.958,2015.997
		c-11.872-7.641-23.899-15.479-35.939-23.337c-7.64-2.369-15.372-4.891-23.062-7.342c11.746,7.436,23.459,14.831,35.043,22.059
		C3175.98,2010.244,3184.045,2013.231,3191.958,2015.997z M3230.289,2040.498c-11.572-7.344-23.239-14.809-34.966-22.35
		c-7.79-2.712-15.682-5.577-23.535-8.385c11.474,7.144,22.799,14.104,34.137,21.077
		C3214.032,2034.038,3222.26,2037.411,3230.289,2040.498z M3267.747,2064.095c-11.159-6.989-22.32-13.982-33.614-21.135
		c-7.773-2.984-15.68-6.153-23.522-9.229c10.807,6.64,21.57,13.232,32.231,19.695
		C3251.132,2056.963,3259.541,2060.668,3267.747,2064.095z M3303.876,2086.611c-10.284-6.35-20.695-12.854-31.126-19.385
		c-7.884-3.276-15.959-6.819-23.92-10.2c10.278,6.219,20.545,12.426,30.685,18.473
		C3287.644,2079.214,3295.83,2083.006,3303.876,2086.611z M3339.645,2108.523c-9.653-5.871-19.386-11.85-29.149-17.859
		c-7.823-3.486-15.843-7.23-23.747-10.821c9.88,5.863,19.609,11.535,29.391,17.272
		C3323.971,2100.913,3331.89,2104.826,3339.645,2108.523z M3373.104,2128.71c-8.749-5.249-17.453-10.439-26.285-15.792
		c-6.761-3.204-13.567-6.468-20.386-9.752c8.365,4.893,16.667,9.706,24.932,14.476
		C3358.629,2121.349,3365.915,2125.087,3373.104,2128.71z M3401.537,2145.73c-5.682-3.361-11.463-6.85-17.218-10.308
		c-5.465-2.73-11.044-5.6-16.551-8.38c6.452,3.702,12.942,7.456,19.324,11.071C3391.955,2140.712,3396.706,2143.17,3401.537,2145.73
		z M3419.696,2156.37l-0.196-0.114l-0.169-0.09L3419.696,2156.37z M3178.938,1998.563c-12.734-8.526-25.47-17.053-38.371-25.786
		c-7.271-1.885-14.482-3.666-21.793-5.624c12.624,8.322,25.122,16.487,37.589,24.615
		C3163.94,1994.115,3171.411,1996.298,3178.938,1998.563z M3218.884,2025.132c-12.355-8.174-24.747-16.395-37.26-24.765
		c-7.467-2.24-14.899-4.423-22.418-6.747c12.221,7.964,24.405,15.882,36.458,23.635
		C3203.463,2019.971,3211.144,2022.509,3218.884,2025.132z M3257.859,2050.8c-11.83-7.724-23.822-15.649-35.831-23.591
		c-7.659-2.587-15.284-5.125-23.001-7.802c11.88,7.635,23.722,15.226,35.433,22.65
		C3242.331,2045.075,3250.059,2047.879,3257.859,2050.8z M3296.424,2075.771c-11.549-7.439-23.147-14.94-34.841-22.56
		c-7.752-2.89-15.459-5.711-23.281-8.695c11.686,7.393,23.21,14.582,34.75,21.798
		C3280.931,2069.587,3288.617,2072.598,3296.424,2075.771z M3334.382,2100.037c-11.19-7.112-22.382-14.232-33.708-21.513
		c-7.657-3.102-15.23-6.091-22.955-9.29c11.098,6.93,22.132,13.778,33.081,20.525
		C3318.748,2093.3,3326.51,2096.598,3334.382,2100.037z M3370.946,2123.164c-10.359-6.493-20.851-13.145-31.358-19.824
		c-7.632-3.317-15.215-6.567-22.92-9.984c10.209,6.285,20.424,12.576,30.487,18.682
		C3355.145,2115.824,3363.037,2119.482,3370.946,2123.164z M3406.604,2145.334c-9.584-5.925-19.24-11.938-28.927-17.987
		c-7.613-3.524-15.276-7.115-22.964-10.738c10.044,6.059,19.987,11.991,29.931,17.926
		C3392.037,2138.229,3399.283,2141.733,3406.604,2145.334z M3441.193,2166.529c-8.846-5.389-17.645-10.722-26.576-16.216
		c-6.723-3.286-13.453-6.582-20.237-9.945c8.557,5.086,17.016,10.054,25.476,15.024
		C3426.988,2159.129,3434.13,2162.878,3441.193,2166.529z M3469.428,2183.703c-5.769-3.473-11.644-7.073-17.495-10.64
		c-4.905-2.519-9.732-4.934-14.667-7.492c5.409,3.165,10.859,6.385,16.205,9.476
		C3458.823,2177.972,3464.113,2180.823,3469.428,2183.703z M3204.998,2006.408c-13.005-8.91-26.149-17.992-39.362-27.159
		c-7.405-1.851-14.895-3.845-22.343-5.766c13.001,8.798,25.853,17.415,38.677,25.991
		C3189.639,2001.776,3197.381,2004.194,3204.998,2006.408z M3246.152,2034.381c-12.832-8.687-25.628-17.335-38.629-26.229
		c-7.561-2.192-15.253-4.593-22.866-6.869c12.669,8.469,25.203,16.764,37.712,25.033
		C3230.287,2028.988,3238.302,2031.806,3246.152,2034.381z M3286.356,2061.445c-12.378-8.283-24.822-16.648-37.369-25.135
		c-7.755-2.538-15.657-5.289-23.476-7.92c12.207,8.063,24.372,16.077,36.402,23.925
		C3270.053,2055.347,3278.291,2058.52,3286.356,2061.445z M3325.498,2087.536c-11.78-7.782-23.749-15.797-35.708-23.802
		c-7.965-2.879-16.122-6.028-24.155-9.011c11.855,7.724,23.647,15.366,35.341,22.892
		C3309.151,2080.925,3317.404,2084.339,3325.498,2087.536z M3364.902,2113.333c-11.707-7.634-23.432-15.288-35.283-23.097
		c-8.04-3.165-16.278-6.6-24.397-9.874c11.661,7.485,23.162,14.769,34.679,22.077
		C3348.224,2106.059,3356.666,2109.834,3364.902,2113.333z M3402.564,2137.724c-11.061-7.125-22.153-14.278-33.358-21.573
		c-7.961-3.369-16.061-6.928-24.105-10.408c11.051,7.001,22.032,13.919,32.927,20.733
		C3386.253,2130.285,3394.43,2134.028,3402.564,2137.724z M3439.428,2161.348c-10.411-6.611-20.972-13.404-31.535-20.206
		c-7.702-3.479-15.363-6.906-23.145-10.487c10.115,6.318,20.232,12.639,30.206,18.782
		C3423.136,2153.441,3431.336,2157.462,3439.428,2161.348z M3475.507,2184.058c-9.755-6.11-19.565-12.29-29.42-18.519
		c-7.515-3.591-15.038-7.192-22.628-10.88c9.661,5.917,19.23,11.718,28.799,17.522
		C3460.034,2176.172,3467.817,2180.17,3475.507,2184.058z M3509.311,2205.071c-8.353-5.165-16.67-10.277-25.108-15.539
		c-7.002-3.515-14.165-7.232-21.236-10.836c8.961,5.408,17.811,10.684,26.672,15.97
		C3496.259,2198.209,3502.752,2201.6,3509.311,2205.071z M3538.475,2223.04c-5.779-3.526-11.655-7.17-17.505-10.788
		c-5.077-2.664-10.151-5.323-15.263-8.034c5.352,3.189,10.744,6.425,16.032,9.531
		C3527.337,2216.874,3532.915,2219.969,3538.475,2223.04z M3230.26,2013.51c-13.296-9.307-26.758-18.812-40.258-28.365
		c-7.248-1.745-14.444-3.405-21.728-5.215c13.288,9.217,26.524,18.374,39.594,27.325
		C3215.392,2009.435,3222.789,2011.412,3230.26,2013.51z M3272.129,2042.623c-13.07-9.04-26.222-18.183-39.485-27.456
		c-7.448-2.085-14.834-4.073-22.337-6.239c13.132,8.981,26.062,17.714,39.021,26.481
		C3256.994,2037.917,3264.522,2040.208,3272.129,2042.623z M3313.374,2070.969c-12.805-8.758-25.624-17.537-38.6-26.502
		c-7.561-2.395-15.055-4.694-22.678-7.178c12.77,8.634,25.422,17.121,38.017,25.542
		C3297.953,2065.663,3305.605,2068.238,3313.374,2070.969z M3353.768,2098.469c-12.351-8.353-24.83-16.854-37.365-25.423
		c-7.702-2.7-15.315-5.28-23.089-8.077c12.278,8.206,24.539,16.387,36.629,24.368
		C3337.969,2092.496,3345.82,2095.417,3353.768,2098.469z M3393.539,2125.22c-11.978-8-24.105-16.177-36.262-24.392
		c-7.798-2.982-15.463-5.789-23.334-8.874c11.94,7.865,23.793,15.623,35.577,23.296
		C3377.601,2118.672,3385.542,2121.907,3393.539,2125.22z M3433.112,2151.432c-11.822-7.797-23.607-15.551-35.581-23.526
		c-7.882-3.252-15.751-6.483-23.714-9.841c11.576,7.521,23.001,14.863,34.425,22.205
		C3416.561,2144.027,3424.884,2147.793,3433.112,2151.432z M3471.245,2176.427c-11.023-7.178-22.114-14.437-33.287-21.796
		c-8.05-3.543-16.255-7.283-24.397-10.942c11.03,7.078,22.01,14.096,32.879,20.982
		C3454.75,2168.639,3463.03,2172.576,3471.245,2176.427z M3507.884,2200.184c-10.136-6.512-20.441-13.227-30.731-19.93
		c-7.948-3.705-16.032-7.582-24.07-11.403c10.54,6.667,21.068,13.319,31.456,19.804
		C3492.408,2192.608,3500.102,2196.342,3507.884,2200.184z M3544.934,2223.766c-9.926-6.289-19.866-12.6-29.887-19.008
		c-7.492-3.678-14.976-7.352-22.545-11.131c9.678,6.01,19.239,11.874,28.824,17.768
		C3529.208,2215.534,3537.14,2219.737,3544.934,2223.766z M3578.394,2244.84c-8.367-5.234-16.74-10.473-25.201-15.821
		c-6.725-3.458-13.461-6.926-20.249-10.463c8.713,5.334,17.322,10.541,25.937,15.754
		C3565.447,2237.897,3571.887,2241.327,3578.394,2244.84z M3608.287,2263.463c-5.75-3.555-11.59-7.215-17.407-10.845
		c-5.136-2.75-10.321-5.561-15.495-8.358c5.315,3.208,10.671,6.468,15.924,9.6
		C3596.986,2257.082,3602.657,2260.296,3608.287,2263.463z M3255.776,2020.636c-13.703-9.776-27.535-19.704-41.421-29.698
		c-7.271-1.682-14.601-3.461-21.914-5.215c13.599,9.617,27.151,19.178,40.55,28.549
		C3240.587,2016.397,3248.234,2018.597,3255.776,2020.636z M3298.419,2050.943c-13.305-9.387-26.826-19.03-40.346-28.673
		c-7.509-2.026-15.136-4.23-22.699-6.34c13.34,9.329,26.601,18.553,39.741,27.639
		C3282.883,2046.028,3290.717,2048.581,3298.419,2050.943z M3340.622,2080.501c-13.159-9.181-26.308-18.35-39.646-27.746
		c-7.667-2.348-15.482-4.908-23.216-7.344c13.109,9.05,26.047,17.897,38.975,26.734
		C3324.702,2074.938,3332.729,2077.815,3340.622,2080.501z M3381.951,2109.187c-12.728-8.784-25.531-17.661-38.439-26.66
		c-7.836-2.659-15.834-5.544-23.745-8.307c12.692,8.672,25.307,17.249,37.819,25.701
		C3365.725,2103.032,3373.894,2106.188,3381.951,2109.187z M3422.747,2137.241c-12.363-8.435-24.92-17.098-37.481-25.769
		c-7.979-2.961-16.111-6.119-24.172-9.192c12.315,8.319,24.635,16.64,36.758,24.731
		C3406.164,2130.437,3414.527,2133.936,3422.747,2137.241z M3462.611,2164.252c-12.007-8.097-24.084-16.276-36.258-24.567
		c-8.065-3.233-16.224-6.589-24.378-9.938c12.215,8.13,24.282,16.077,36.341,24.019
		C3446.5,2157.367,3454.521,2160.768,3462.611,2164.252z M3502.019,2190.641c-11.705-7.795-23.426-15.614-35.289-23.599
		c-7.913-3.392-15.749-6.686-23.751-10.192c11.607,7.625,23.093,15.109,34.541,22.548
		C3485.764,2183.243,3493.869,2186.914,3502.019,2190.641z M3540.502,2216.149c-11.101-7.303-22.333-14.759-33.606-22.26
		c-7.875-3.582-15.678-7.073-23.643-10.768c10.778,6.998,21.541,13.979,32.158,20.783
		C3523.81,2208.032,3532.202,2212.146,3540.502,2216.149z M3577.802,2240.535c-10.411-6.759-20.943-13.665-31.497-20.593
		c-7.84-3.763-15.692-7.54-23.622-11.414c10.336,6.606,20.645,13.176,30.856,19.627
		C3561.67,2232.337,3569.764,2236.473,3577.802,2240.535z M3614.358,2264.076c-9.773-6.263-19.482-12.448-29.358-18.834
		c-7.667-3.86-15.47-7.885-23.222-11.848c9.924,6.244,19.682,12.286,29.495,18.396
		C3599.01,2255.936,3606.71,2260.037,3614.358,2264.076z M3647.972,2285.516c-8.219-5.201-16.503-10.476-24.826-15.807
		c-6.507-3.412-12.913-6.706-19.482-10.198c8.271,5.128,16.459,10.161,24.628,15.171
		C3634.909,2278.361,3641.418,2281.91,3647.972,2285.516z M3678.603,2304.771c-5.746-3.594-11.567-7.269-17.355-10.912
		c-5.102-2.782-10.282-5.657-15.421-8.486c5.361,3.272,10.765,6.597,16.069,9.798
		C3667.477,2298.389,3673.063,2301.605,3678.603,2304.771z M3280.564,2027.144c-13.992-10.149-28.106-20.445-42.275-30.812
		c-7.175-1.595-14.338-3.164-21.557-4.83c13.976,10.054,27.895,20.036,41.692,29.876
		C3265.857,2023.381,3273.183,2025.219,3280.564,2027.144z M3324,2058.56c-13.628-9.788-27.481-19.843-41.321-29.885
		c-7.329-1.905-14.578-3.683-21.957-5.667c13.603,9.701,27.218,19.419,40.6,28.852C3308.951,2054.19,3316.435,2056.32,3324,2058.56z
		 M3366.967,2089.256c-13.43-9.548-26.968-19.22-40.596-29.002c-7.505-2.214-14.907-4.285-22.474-6.591
		c13.428,9.459,26.708,18.734,39.95,27.969C3351.624,2084.271,3359.264,2086.718,3366.967,2089.256z M3409.342,2119.207
		c-13.182-9.272-26.41-18.602-39.779-28.097c-7.619-2.505-15.132-4.854-22.824-7.453c13.051,9.092,25.98,18.04,38.846,26.914
		C3393.564,2113.532,3401.443,2116.356,3409.342,2119.207z M3450.929,2148.339c-12.771-8.886-25.697-17.953-38.66-27.073
		c-7.788-2.8-15.501-5.505-23.37-8.411c12.667,8.733,25.303,17.433,37.773,25.934
		C3434.82,2142.053,3442.868,2145.191,3450.929,2148.339z M3492.167,2176.916c-12.484-8.589-25.147-17.392-37.827-26.212
		c-7.984-3.107-15.992-6.253-24.063-9.474c12.344,8.407,24.636,16.748,36.802,24.942
		C3475.449,2169.762,3483.893,2173.45,3492.167,2176.916z M3532.581,2204.516c-12.228-8.314-24.432-16.602-36.825-25.112
		c-8.115-3.386-16.355-6.936-24.566-10.445c12.132,8.155,24.095,16.107,36.062,24.066
		C3515.709,2196.875,3524.227,2200.797,3532.581,2204.516z M3571.896,2231.106c-11.634-7.816-23.345-15.731-35.147-23.747
		c-8.138-3.61-16.386-7.359-24.624-11.09c11.592,7.7,23.11,15.313,34.535,22.812
		C3555.109,2223.137,3563.547,2227.178,3571.896,2231.106z M3609.862,2256.541c-10.767-7.149-21.734-14.534-32.679-21.893
		c-8.159-3.82-16.478-7.835-24.735-11.78c11.023,7.238,22.07,14.5,32.914,21.525
		C3593.611,2248.543,3601.716,2252.514,3609.862,2256.541z M3648.389,2281.901c-10.705-7.021-21.466-14.096-32.297-21.259
		c-7.778-3.825-15.511-7.596-23.383-11.533c10.326,6.655,20.589,13.237,30.806,19.761
		C3631.819,2273.232,3640.184,2277.66,3648.389,2281.901z M3684.372,2305.327c-9.601-6.212-19.201-12.429-28.92-18.778
		c-7.655-3.932-15.434-8.019-23.18-12.058c9.888,6.289,19.636,12.418,29.395,18.565
		C3669.292,2297.216,3676.83,2301.269,3684.372,2305.327z M3717.722,2326.854c-7.932-5.073-16.013-10.316-24.076-15.536
		c-6.542-3.498-13.019-6.921-19.626-10.497c8.13,5.106,16.23,10.173,24.249,15.146
		C3704.808,2319.662,3711.244,2323.234,3717.722,2326.854z M3749.175,2346.769c-5.784-3.649-11.611-7.354-17.407-11.02
		c-4.948-2.745-9.982-5.587-14.971-8.378c5.523,3.4,11.098,6.858,16.578,10.207
		C3738.66,2340.664,3743.931,2343.734,3749.175,2346.769z M3305.318,2033.517c-14.332-10.569-28.737-21.212-43.262-32.012
		c-7.153-1.522-14.334-3.095-21.53-4.688c14.255,10.425,28.431,20.755,42.496,30.957
		C3290.465,2029.706,3297.928,2031.666,3305.318,2033.517z M3349.647,2066.081c-13.971-10.205-28.099-20.597-42.273-31.046
		c-7.369-1.84-14.819-3.809-22.241-5.726c13.932,10.101,27.856,20.193,41.575,30.047
		C3334.365,2061.614,3342.053,2063.916,3349.647,2066.081z M3393.27,2097.825c-13.646-9.871-27.47-19.949-41.331-30.074
		c-7.561-2.149-15.234-4.462-22.862-6.703c13.697,9.829,27.322,19.574,40.815,29.159
		C3377.703,2092.772,3385.532,2095.361,3393.27,2097.825z M3436.399,2128.826c-13.482-9.653-26.956-19.303-40.625-29.179
		c-7.7-2.444-15.515-5.043-23.291-7.586c13.482,9.57,26.805,18.95,40.098,28.297
		C3420.552,2123.226,3428.509,2126.067,3436.399,2128.826z M3479.033,2159.214c-13.176-9.341-26.451-18.799-39.823-28.37
		c-7.844-2.733-15.78-5.586-23.703-8.427c13.142,9.237,26.218,18.394,39.167,27.395
		C3462.823,2152.986,3470.972,2156.158,3479.033,2159.214z M3520.51,2188.521c-12.672-8.885-25.566-18.035-38.444-27.162
		c-7.953-3.003-15.947-6.064-23.987-9.181c12.738,8.857,25.489,17.735,38.019,26.349
		C3504.311,2181.953,3512.393,2185.218,3520.51,2188.521z M3561.853,2217.307c-12.534-8.694-25.105-17.43-37.81-26.325
		c-8.048-3.264-16.103-6.541-24.247-9.926c12.538,8.603,24.93,17.031,37.304,25.435
		C3545.417,2210.18,3553.636,2213.743,3561.853,2217.307z M3602.264,2245.165c-12.092-8.295-24.226-16.634-36.493-25.13
		c-8.119-3.506-16.288-7.078-24.51-10.705c12.201,8.276,24.278,16.406,36.3,24.477
		C3585.888,2237.705,3594.042,2241.392,3602.264,2245.165z M3641.941,2272.258c-11.613-7.873-23.385-15.928-35.181-24.014
		c-8.059-3.681-16.067-7.302-24.224-11.103c11.375,7.633,22.732,15.238,33.933,22.66
		C3624.992,2263.991,3633.526,2268.197,3641.941,2272.258z M3680.495,2298.227c-11.04-7.395-22.193-14.916-33.389-22.492
		c-8.086-3.882-16.232-7.836-24.42-11.843c11.105,7.347,22.182,14.655,33.133,21.816
		C3664.119,2289.97,3672.296,2294.089,3680.495,2298.227z M3718.978,2323.802c-10.746-7.107-21.459-14.173-32.343-21.44
		c-7.952-3.995-15.969-8.065-24.026-12.184c10.584,6.894,20.991,13.583,31.443,20.327
		C3702.377,2314.958,3710.757,2319.476,3718.978,2323.802z M3754.723,2347.323c-9.459-6.178-19.003-12.452-28.595-18.787
		c-7.563-3.959-15.184-7.993-22.836-12.058c9.709,6.243,19.33,12.387,28.906,18.478
		C3739.766,2339.151,3747.238,2343.232,3754.723,2347.323z M3788.865,2369.502c-8.065-5.203-16.236-10.532-24.393-15.843
		c-6.494-3.531-12.936-7-19.493-10.609c7.886,5.014,15.805,10.062,23.566,14.926
		C3775.387,2361.898,3782.094,2365.664,3788.865,2369.502z M3819.8,2389.305c-5.888-3.753-11.723-7.448-17.64-11.238
		c-4.709-2.647-9.488-5.376-14.232-8.065c5.821,3.603,11.7,7.274,17.501,10.856C3810.243,2383.698,3815.02,2386.503,3819.8,2389.305
		z M3329.621,2039.451c-14.594-10.918-29.199-21.854-43.996-33.016c-7.102-1.447-14.232-2.936-21.378-4.453
		c14.607,10.855,29.066,21.535,43.471,32.153C3315.058,2035.964,3322.333,2037.701,3329.621,2039.451z M3374.696,2073.051
		c-14.284-10.602-28.676-21.326-43.16-32.162c-7.248-1.738-14.461-3.422-21.761-5.237c14.259,10.507,28.451,20.937,42.506,31.202
		C3359.804,2068.99,3367.238,2071.003,3374.696,2073.051z M3419.059,2105.873c-13.928-10.238-28.091-20.753-42.25-31.26
		c-7.407-2.026-14.761-3.973-22.232-6.091c13.922,10.168,27.828,20.32,41.529,30.227
		C3403.808,2101.191,3411.433,2103.531,3419.059,2105.873z M3463.13,2138.05c-13.849-10.081-27.697-20.159-41.74-30.473
		c-7.582-2.321-15.124-4.588-22.778-7.009c13.772,9.951,27.333,19.647,40.915,29.371
		C3447.431,2132.69,3455.306,2135.408,3463.13,2138.05z M3506.411,2169.399c-13.492-9.728-27.053-19.535-40.746-29.498
		c-7.746-2.609-15.501-5.232-23.33-7.947c13.455,9.621,26.793,19.115,40.054,28.508
		C3490.446,2163.502,3498.448,2166.474,3506.411,2169.399z M3548.988,2199.986c-13.09-9.344-26.366-18.904-39.665-28.489
		c-7.915-2.896-15.901-5.883-23.903-8.893c13.065,9.256,26.122,18.5,38.981,27.512
		C3532.637,2193.457,3540.85,2196.77,3548.988,2199.986z M3590.924,2229.743c-12.834-9.065-25.762-18.239-38.789-27.526
		c-8.026-3.158-16.084-6.362-24.203-9.643c12.828,8.977,25.557,17.841,38.206,26.604
		C3574.456,2222.769,3582.707,2226.28,3590.924,2229.743z M3632.436,2258.873c-12.619-8.818-25.249-17.648-38.052-26.674
		c-8.082-3.395-16.155-6.778-24.337-10.297c12.473,8.63,24.782,17.067,37.079,25.491
		C3615.6,2251.265,3624.071,2255.135,3632.436,2258.873z M3672.851,2286.972c-12.065-8.333-24.249-16.816-36.502-25.368
		c-8.19-3.642-16.443-7.363-24.735-11.136c12.034,8.238,24.005,16.4,35.86,24.422
		C3655.979,2278.975,3664.454,2283.026,3672.851,2286.972z M3712.286,2314.097c-11.434-7.81-23.034-15.809-34.646-23.826
		c-8.252-3.87-16.649-7.908-25.012-11.909c11.528,7.802,23.053,15.596,34.4,23.18
		C3695.514,2305.806,3703.91,2309.969,3712.286,2314.097z M3751.561,2340.712c-11.323-7.642-22.614-15.243-34.083-23.054
		c-8.002-3.93-15.961-7.804-24.064-11.858c11.124,7.41,22.118,14.664,33.108,21.917
		C3734.927,2332.119,3743.269,2336.444,3751.561,2340.712z M3789.723,2366.317c-10.505-7.005-21.062-14.067-31.718-21.246
		c-8.04-4.116-16.209-8.393-24.353-12.634c10.498,6.909,20.876,13.677,31.229,20.419
		C3773.183,2357.368,3781.527,2361.93,3789.723,2366.317z M3825.308,2389.963c-9.259-6.098-18.693-12.399-28.105-18.674
		c-7.494-3.993-15.026-8.029-22.612-12.125c9.4,6.112,18.78,12.203,28.035,18.144
		C3810.243,2381.591,3817.781,2385.787,3825.308,2389.963z M3860.381,2412.858c-8.305-5.404-16.645-10.848-25.008-16.317
		c-6.365-3.511-12.669-6.95-19.099-10.539c8.205,5.236,16.445,10.515,24.56,15.649
		C3847.428,2405.474,3853.86,2409.112,3860.381,2412.858z M3890.382,2432.285c-5.686-3.659-11.334-7.274-17.076-10.996
		c-4.729-2.696-9.5-5.439-14.265-8.175c6.342,3.974,12.642,7.896,18.943,11.822
		C3882.148,2427.42,3886.245,2429.83,3890.382,2432.285z M3353.716,2045.128c-14.89-11.296-29.747-22.553-44.85-34.101
		c-7.038-1.369-14.084-2.744-21.164-4.184c14.863,11.211,29.518,22.176,44.173,33.14
		C3339.178,2041.73,3346.468,2043.461,3353.716,2045.128z M3399.556,2079.76c-14.565-10.959-29.201-22.009-43.967-33.208
		c-7.229-1.66-14.515-3.397-21.799-5.135c14.553,10.885,29.001,21.646,43.356,32.294
		C3384.636,2075.761,3392.126,2077.801,3399.556,2079.76z M3444.618,2113.573c-14.186-10.585-28.589-21.414-43.002-32.264
		c-7.406-1.946-14.888-3.997-22.359-6.035c14.23,10.556,28.456,21.109,42.456,31.397
		C3429.382,2109.017,3437.024,2111.325,3444.618,2113.573z M3489.243,2146.669c-14.034-10.374-28.114-20.799-42.35-31.409
		c-7.569-2.231-15.203-4.552-22.843-6.882c14.096,10.35,28.024,20.496,41.919,30.611
		C3473.78,2141.617,3481.516,2144.148,3489.243,2146.669z M3533.462,2179.185c-13.838-10.136-27.72-20.319-41.758-30.69
		c-7.696-2.502-15.424-5.048-23.199-7.656c13.834,10.059,27.516,19.944,41.152,29.769
		C3517.641,2173.527,3525.57,2176.38,3533.462,2179.185z M3576.823,2210.817c-13.451-9.755-27.058-19.7-40.719-29.702
		c-7.819-2.766-15.634-5.532-23.539-8.414c13.388,9.646,26.737,19.241,39.919,28.644
		C3560.643,2204.557,3568.766,2207.732,3576.823,2210.817z M3619.667,2241.75c-13.159-9.452-26.46-19.066-39.825-28.752
		c-8-3.056-16.113-6.241-24.214-9.418c13.124,9.353,26.189,18.635,39.112,27.759
		C3603.072,2234.837,3611.441,2238.382,3619.667,2241.75z M3661.762,2271.781c-12.878-9.152-25.735-18.28-38.789-27.642
		c-8.159-3.33-16.509-6.889-24.776-10.347c12.965,9.135,25.733,18.042,38.512,26.962
		C3645.11,2264.492,3653.47,2268.177,3661.762,2271.781z M3702.948,2300.913c-12.395-8.719-24.891-17.553-37.477-26.492
		c-8.211-3.553-16.536-7.25-24.855-10.936c12.569,8.762,25.039,17.413,37.414,25.953
		C3686.426,2293.373,3694.666,2297.114,3702.948,2300.913z M3743.692,2329.47c-12.055-8.385-24.328-17.021-36.587-25.643
		c-8.128-3.709-16.201-7.354-24.435-11.194c11.796,8.141,23.605,16.296,35.204,24.206
		C3726.503,2321.075,3735.181,2325.375,3743.692,2329.47z M3783.475,2356.925c-11.669-8.027-23.349-16.065-35.164-24.261
		c-8.255-3.957-16.628-8.053-24.991-12.141c11.786,8.015,23.478,15.916,35.112,23.753
		C3766.868,2348.599,3775.152,2352.739,3783.475,2356.925z M3822.752,2383.773c-11.238-7.639-22.507-15.317-33.904-23.14
		c-8.061-4.034-16.068-8.007-24.233-12.172c11.094,7.458,22.043,14.742,32.989,22.021
		C3806.039,2374.97,3814.431,2379.415,3822.752,2383.773z M3860.649,2409.431c-10.278-6.901-20.713-13.989-31.158-21.084
		c-8.05-4.196-16.27-8.585-24.428-12.905c10.315,6.851,20.586,13.65,30.747,20.322
		C3844.109,2400.342,3852.459,2404.981,3860.649,2409.431z M3897.237,2433.828c-9.548-6.335-19.172-12.76-28.829-19.221
		c-7.444-4.024-14.947-8.113-22.484-12.244c9.311,6.096,18.63,12.206,27.81,18.149
		C3881.613,2425.003,3889.455,2429.453,3897.237,2433.828z M3931.945,2456.703c-8.442-5.537-16.826-11.003-25.358-16.642
		c-6.286-3.514-12.478-6.918-18.83-10.507c8.336,5.355,16.617,10.649,24.876,15.92
		C3919.132,2449.289,3925.515,2452.967,3931.945,2456.703z M3961.136,2475.807c-5.229-3.39-10.559-6.904-15.863-10.383
		c-5.038-2.902-10.071-5.805-15.146-8.755c7.044,4.462,13.907,8.714,20.88,13.096
		C3954.421,2471.825,3957.742,2473.771,3961.136,2475.807z M3377.582,2050.527c-15.067-11.577-30.143-23.165-45.431-35.003
		c-7.036-1.304-14.136-2.716-21.212-4.085c15.151,11.579,30.064,22.887,44.996,34.214
		C3363.175,2047.313,3370.396,2048.944,3377.582,2050.527z M3424.09,2086.11c-14.83-11.308-29.712-22.676-44.748-34.229
		c-7.157-1.567-14.324-3.158-21.532-4.805c14.832,11.247,29.524,22.328,44.15,33.333
		C3409.371,2082.357,3416.744,2084.252,3424.09,2086.11z M3469.938,2120.961c-14.503-10.969-29.199-22.156-43.929-33.389
		c-7.309-1.842-14.617-3.686-21.989-5.615c14.488,10.901,28.947,21.767,43.208,32.399
		C3454.827,2116.598,3462.413,2118.819,3469.938,2120.961z M3515.364,2155.141c-14.342-10.751-28.772-21.602-43.327-32.603
		c-7.479-2.12-14.984-4.276-22.536-6.492c14.29,10.645,28.445,21.139,42.523,31.541
		C3499.813,2150.12,3507.653,2152.717,3515.364,2155.141z M3560.112,2188.509c-14.092-10.47-28.199-20.963-42.498-31.673
		c-7.653-2.399-15.397-4.92-23.135-7.424c14.113,10.42,28.049,20.629,41.956,30.811
		C3544.361,2183.031,3552.276,2185.818,3560.112,2188.509z M3604.101,2221.067c-13.692-10.081-27.526-20.331-41.431-30.659
		c-7.798-2.666-15.705-5.471-23.595-8.252c13.807,10.103,27.541,20.124,41.137,29.98
		C3588.249,2215.204,3596.163,2218.126,3604.101,2221.067z M3647.495,2252.894c-13.424-9.791-27.018-19.778-40.654-29.818
		c-7.857-2.903-15.661-5.738-23.612-8.762c13.448,9.75,26.87,19.463,40.104,28.963
		C3631.484,2246.6,3639.449,2249.699,3647.495,2252.894z M3690.487,2284.047c-13.284-9.593-26.535-19.149-40.01-28.963
		c-7.992-3.163-15.947-6.28-24.041-9.568c13.28,9.518,26.335,18.773,39.425,28.068
		C3674.153,2277.175,3682.305,2280.594,3690.487,2284.047z M3732.799,2314.46c-12.903-9.228-25.895-18.555-38.998-28.012
		c-8.069-3.392-16.067-6.7-24.234-10.226c12.742,9.045,25.374,17.953,37.931,26.778
		C3715.971,2306.868,3724.443,2310.732,3732.799,2314.46z M3773.947,2343.788c-12.349-8.741-24.918-17.731-37.477-26.71
		c-8.213-3.652-16.497-7.385-24.824-11.17c12.43,8.731,24.845,17.447,37.066,25.941
		C3757.194,2335.911,3765.584,2339.866,3773.947,2343.788z M3815.01,2372.633c-12.167-8.515-24.368-17.073-36.7-25.779
		c-8.25-3.854-16.588-7.811-24.953-11.804c12.061,8.363,24.03,16.624,35.923,24.792
		C3797.901,2364.158,3806.509,2368.458,3815.01,2372.633z M3854.876,2400.367c-11.688-8.09-23.403-16.211-35.258-24.497
		c-8.269-4.043-16.593-8.147-24.976-12.329c11.88,8.142,23.587,16.085,35.3,24.032
		C3838.353,2391.955,3846.582,2396.123,3854.876,2400.367z M3893.905,2427.273c-11.032-7.55-22.216-15.277-33.427-23.035
		c-8.084-4.114-16.151-8.216-24.343-12.462c10.984,7.443,21.903,14.81,32.72,22.059
		C3877.259,2418.378,3885.617,2422.866,3893.905,2427.273z M3932.486,2453.509c-10.446-7.063-21.001-14.253-31.589-21.483
		c-8.013-4.237-16.186-8.666-24.305-13.03c10.2,6.828,20.405,13.662,30.447,20.304
		C3915.531,2444.052,3924.109,2448.895,3932.486,2453.509z M3969.32,2478.233c-9.811-6.555-19.563-13.041-29.489-19.729
		c-7.5-4.111-15.101-8.336-22.699-12.557c9.598,6.314,19.124,12.542,28.626,18.741
		C3953.633,2469.231,3961.542,2473.806,3969.32,2478.233z M4003.519,2500.989c-8.129-5.369-16.342-10.831-24.593-16.337
		c-6.63-3.748-13.219-7.455-19.922-11.291c8.334,5.411,16.509,10.642,24.749,15.941
		C3990.364,2493.223,3996.977,2497.148,4003.519,2500.989z M4034.635,2521.4c-5.777-3.772-11.624-7.625-17.438-11.438
		c-4.527-2.638-9.002-5.215-13.561-7.891c5.315,3.402,10.607,6.781,15.859,10.11
		C4024.545,2515.261,4029.623,2518.368,4034.635,2521.4z M3401.081,2055.545c-15.282-11.879-30.614-23.821-46.127-35.971
		c-6.936-1.227-13.849-2.41-20.826-3.697c15.326,11.864,30.454,23.499,45.552,35.099
		C3386.849,2052.547,3393.968,2054.052,3401.081,2055.545z M3448.248,2092.061c-15.067-11.63-30.166-23.292-45.44-35.165
		c-7.098-1.489-14.215-3.001-21.368-4.566c15.09,11.594,30.016,22.988,44.902,34.335
		C3433.68,2088.516,3440.97,2090.299,3448.248,2092.061z M3494.702,2127.802c-14.726-11.277-29.622-22.752-44.575-34.29
		c-7.254-1.752-14.549-3.548-21.866-5.386c14.792,11.279,29.533,22.49,44.1,33.502
		C3479.858,2123.753,3487.279,2125.777,3494.702,2127.802z M3540.627,2162.827c-14.513-11.022-29.141-22.18-43.875-33.459
		c-7.402-2.014-14.824-4.052-22.297-6.161c14.596,11.03,29.091,21.94,43.467,32.711
		C3525.56,2158.312,3533.071,2160.538,3540.627,2162.827z M3586.248,2197.29c-14.405-10.848-28.812-21.699-43.425-32.789
		c-7.53-2.27-15.04-4.513-22.653-6.887c14.417,10.795,28.628,21.353,42.837,31.906
		C3570.816,2192.189,3578.529,2194.735,3586.248,2197.29z M3631.282,2231.078c-14.109-10.536-28.355-21.227-42.685-32.017
		c-7.661-2.526-15.28-5.002-23.03-7.642c13.976,10.379,27.866,20.656,41.633,30.789
		C3615.237,2225.179,3623.344,2228.233,3631.282,2231.078z M3675.249,2263.795c-13.655-10.106-27.505-20.433-41.375-30.79
		c-7.89-2.817-15.951-5.849-23.938-8.789c13.713,10.094,27.418,20.175,40.91,30.011
		C3659.014,2257.46,3667.184,2260.693,3675.249,2263.795z M3719.034,2295.989c-13.638-9.994-27.23-19.947-41.067-30.17
		c-7.978-3.059-16.032-6.207-24.112-9.392c13.576,9.885,26.937,19.514,40.321,29.178
		C3702.494,2289.104,3710.832,2292.63,3719.034,2295.989z M3761.911,2327.27c-13.199-9.582-26.479-19.261-39.879-29.079
		c-8.109-3.31-16.322-6.747-24.541-10.189c13.232,9.542,26.33,18.93,39.365,28.244
		C3745.258,2319.977,3753.627,2323.677,3761.911,2327.27z M3803.805,2357.593c-12.655-9.096-25.524-18.442-38.387-27.784
		c-8.217-3.548-16.568-7.262-24.897-10.95c12.815,9.155,25.61,18.282,38.217,27.197
		C3787.171,2349.995,3795.49,2353.797,3803.805,2357.593z M3845.772,2387.565c-12.634-8.989-25.31-18.028-38.123-27.225
		c-8.163-3.715-16.278-7.374-24.553-11.223c12.403,8.754,24.72,17.411,36.941,25.955
		C3828.658,2379.287,3837.275,2383.498,3845.772,2387.565z M3886.551,2416.407c-12.078-8.503-24.18-17.031-36.433-25.74
		c-8.392-4-16.965-8.217-25.48-12.36c12.209,8.518,24.241,16.833,36.279,25.154
		C3869.517,2407.844,3878.075,2412.173,3886.551,2416.407z M3926.28,2444.268c-11.532-8.032-23.218-16.24-34.937-24.489
		c-8.236-4.097-16.488-8.218-24.841-12.453c11.711,8.085,23.345,16.077,34.87,23.954
		C3909.775,2435.723,3918,2439.96,3926.28,2444.268z M3965.565,2471.466c-11.073-7.625-22.264-15.383-33.493-23.191
		c-8.054-4.167-16.09-8.312-24.253-12.612c10.875,7.424,21.755,14.856,32.447,22.071
		C3948.769,2462.395,3957.179,2466.946,3965.565,2471.466z M4004.255,2497.913c-10.646-7.245-21.241-14.43-32.022-21.829
		c-7.971-4.276-16.063-8.695-24.143-13.101c10.5,7.054,20.911,14.004,31.293,20.919
		C3987.708,2488.612,3996.044,2493.337,4004.255,2497.913z M4041.165,2522.905c-9.525-6.402-19.122-12.896-28.785-19.46
		c-7.725-4.281-15.607-8.75-23.432-13.15c9.667,6.415,19.197,12.671,28.739,18.943
		C4025.522,2513.802,4033.427,2518.455,4041.165,2522.905z M4075.796,2546.081c-8.104-5.389-16.336-10.918-24.551-16.431
		c-6.611-3.779-13.284-7.629-19.97-11.494c7.763,5.089,15.499,10.148,23.147,15.106
		C4061.545,2537.531,4068.758,2541.904,4075.796,2546.081z M4106.795,2566.523c-5.971-3.925-11.898-7.797-17.895-11.751
		c-3.904-2.299-7.709-4.484-11.64-6.812c4.531,2.911,9.125,5.892,13.63,8.772C4096.184,2559.989,4101.545,2563.32,4106.795,2566.523
		z M4995.329,1716.08c-4.292,1.887-8.755,3.859-13.388,5.912c-22.935,170.401-57.924,396.047-179.143,556.955
		c-154.195,204.682-447.824,304.573-1033.514,52.556c13.005,9.433,25.987,18.839,38.779,28.032
		c578.45,263.195,869.677,183.245,1019.595-11.962C4960.502,2174.6,4982.526,1911.186,4995.329,1716.08z M4982.089,1720.882
		c4.606-2.039,9.046-3.999,13.309-5.872c0.388-5.936,0.769-11.807,1.146-17.609c-3.929,2.122-7.998,4.353-12.205,6.681
		C4983.601,1709.616,4982.851,1715.217,4982.089,1720.882z M2848.241,1879.441c-3.894-1.182-7.786-2.35-11.69-3.548
		c7.317,2.716,14.565,5.29,21.833,7.901C2855.027,1882.388,2851.608,1880.866,2848.241,1879.441z M2875.198,1887.627
		c-6.217-1.822-12.494-3.813-18.726-5.686c7.467,3.138,14.836,6.115,22.261,9.188c6.173,2.195,12.405,4.508,18.547,6.645
		C2889.953,1894.451,2882.586,1891.056,2875.198,1887.627z M2900.416,1894.797c-6.538-1.86-13.044-3.661-19.603-5.573
		c8.709,4.024,17.299,7.86,25.93,11.765c6.604,2.272,13.174,4.487,19.751,6.708
		C2917.844,1903.46,2909.158,1899.17,2900.416,1894.797z M2926.495,1902.209c-7.075-1.948-14.213-4.048-21.313-6.057
		c9.588,4.784,19.034,9.354,28.526,13.996c7.282,2.444,14.613,4.985,21.857,7.354
		C2945.917,1912.467,2936.253,1907.405,2926.495,1902.209z M2951.365,1908.866c-6.911-1.844-13.778-3.591-20.711-5.491
		c10.188,5.413,20.216,10.594,30.287,15.843c7.211,2.347,14.365,4.595,21.541,6.877
		C2972.118,1920.363,2961.834,1914.741,2951.365,1908.866z M2977.012,1915.666c-7.323-1.89-14.698-3.895-22.051-5.846
		c10.848,6.078,21.474,11.852,32.199,17.769c7.482,2.364,15.02,4.844,22.453,7.131
		C2998.827,1928.477,2987.917,1922.066,2977.012,1915.666z M3001.557,1921.834c-7.052-1.754-14.08-3.456-21.155-5.271
		c11.113,6.517,22.195,12.988,33.191,19.347c7.444,2.279,14.813,4.426,22.218,6.635
		C3024.454,1935.722,3013.072,1928.866,3001.557,1921.834z M3026.5,1927.975c-7.267-1.747-14.565-3.572-21.862-5.381
		c11.678,7.124,23.26,14.12,34.772,21.028c7.582,2.253,15.226,4.627,22.762,6.799
		C3050.378,1943.061,3038.438,1935.516,3026.5,1927.975z M3050.824,1933.713c-7.132-1.655-14.265-3.313-21.428-5.026
		c12.084,7.629,24.143,15.223,36.089,22.673c7.459,2.142,14.83,4.123,22.247,6.193
		C3075.485,1949.677,3063.235,1941.793,3050.824,1933.713z M3075.033,1939.218c-7.175-1.604-14.369-3.242-21.576-4.908
		c12.561,8.177,24.962,16.143,37.35,24.102c7.523,2.089,15.094,4.269,22.576,6.285
		C3100.695,1956.319,3087.921,1947.838,3075.033,1939.218z M3099.249,1944.564c-7.192-1.549-14.409-3.153-21.628-4.76
		c12.984,8.683,25.891,17.263,38.679,25.704c7.34,1.972,14.584,3.77,21.882,5.667
		C3125.338,1962.465,3112.271,1953.486,3099.249,1944.564z M3122.981,1949.517c-7.104-1.467-14.207-2.928-21.341-4.454
		c13.142,9.001,26.303,18.028,39.271,26.819c7.488,1.939,15.003,3.928,22.443,5.79
		C3149.979,1968.387,3136.516,1959,3122.981,1949.517z M3146.737,1954.415c-7.117-1.411-14.286-2.943-21.43-4.412
		c13.649,9.556,27.195,18.988,40.683,28.351c7.338,1.829,14.615,3.547,21.914,5.309
		C3174.253,1974.001,3160.567,1964.295,3146.737,1954.415z M3169.94,1958.834c-7.007-1.331-13.984-2.611-21.016-4.003
		c13.919,9.943,27.691,19.703,41.423,29.413c7.336,1.765,14.68,3.536,21.976,5.23
		C3198.283,1979.366,3184.201,1969.21,3169.94,1958.834z M3193.306,1963.286c-7.04-1.28-14.155-2.703-21.226-4.043
		c14.344,10.432,28.503,20.638,42.621,30.794c7.257,1.677,14.482,3.296,21.695,4.905
		C3222.128,1984.503,3207.819,1974.018,3193.306,1963.286z M3216.236,1967.277c-6.938-1.208-13.83-2.324-20.801-3.586
		c14.542,10.749,28.899,21.278,43.198,31.736c7.213,1.602,14.405,3.168,21.578,4.697
		C3245.669,1989.314,3231.012,1978.369,3216.236,1967.277z M3239.225,1971.238c-6.961-1.154-13.969-2.401-20.959-3.61
		c14.822,11.121,29.547,22.13,44.138,32.975c7.173,1.525,14.351,3.059,21.484,4.513
		C3269.137,1993.985,3254.201,1982.638,3239.225,1971.238z M3261.859,1974.873c-6.873-1.087-13.736-2.15-20.641-3.289
		c14.999,11.41,29.972,22.796,44.746,33.946c7.096,1.442,14.142,2.809,21.197,4.184
		C3292.213,1998.282,3277.025,1986.563,3261.859,1974.873z M3284.383,1978.352c-6.85-1.031-13.728-2.098-20.607-3.185
		c15.203,11.72,30.449,23.488,45.44,34.953c7.096,1.382,14.236,2.826,21.293,4.143
		C3315.289,2002.468,3299.822,1990.393,3284.383,1978.352z M3306.757,1981.65c-6.811-0.97-13.644-1.984-20.482-3.005
		c15.469,12.065,30.954,24.148,46.213,35.969c6.992,1.295,13.905,2.468,20.855,3.7
		C3337.953,2006.255,3322.352,1993.953,3306.757,1981.65z M4842.107,1782.371c-289.112,119.061-832.66,298.928-1533.533,199.526
		c15.649,12.341,31.279,24.665,46.721,36.764C4073.666,2145.394,4572.279,1927.518,4842.107,1782.371z M4861.245,1774.424
		c-3.55,1.483-7.103,2.969-10.728,4.477c-267.791,145.041-768.726,368.434-1493.61,241.019
		c15.551,12.182,30.929,24.165,46.242,36.068C4155.625,2213.523,4615.621,1945.798,4861.245,1774.424z M4877.425,1767.61
		c-3.978,1.684-7.951,3.371-12.041,5.087c-244.628,171.204-705.114,442.194-1460.504,284.641
		c15.328,11.911,30.466,23.604,45.583,35.269C4236.091,2282.077,4655.556,1965.347,4877.425,1767.61z M4892.82,1761.052
		c-4.152,1.782-8.375,3.579-12.667,5.401c-221.252,197.56-640.592,516.75-1427.806,327.607
		c15.009,11.582,29.951,23.083,44.738,34.403C4316.676,2351.313,4694.714,1985.351,4892.82,1761.052z M4907.822,1754.596
		c-4.225,1.831-8.577,3.702-12.967,5.582c-197.691,224.12-575.32,592.086-1395.726,369.845
		c14.77,11.308,29.464,22.521,44.009,33.565C4397.833,2421.281,4733.624,2005.629,4907.822,1754.596z M4922.671,1748.144
		c-4.286,1.873-8.719,3.795-13.187,5.731c-173.921,250.87-509.2,668.209-1364.149,411.389
		c14.676,11.136,29.126,22.013,43.592,32.905c737.739,243.306,1065.38-34.357,1241.416-294.892
		C4866.873,1849.214,4896.874,1795.905,4922.671,1748.144z M4937.364,1741.703c-4.336,1.906-8.753,3.845-13.28,5.825
		c-25.943,48.061-56.138,101.796-92.95,156.281c-176.005,260.489-503.383,538.114-1239.854,296.128
		c14.419,10.856,28.739,21.59,42.942,32.192c669.094,238.89,985.261,37.041,1156.801-208.494
		C4857.461,1928.535,4902.214,1826.87,4937.364,1741.703z M4951.954,1735.268c-4.353,1.924-8.768,3.875-13.338,5.885
		c-35.223,85.397-80.083,187.505-146.815,283.024c-171.492,245.467-487.354,447.326-1155.072,209.817
		c13.94,10.405,27.887,20.82,41.602,30.962c629.117,241.104,935.768,85.106,1101.15-144.922
		C4868.35,1996.429,4916.469,1851.448,4951.954,1735.268z M4966.467,1728.844c-4.336,1.922-8.771,3.889-13.363,5.917
		c-35.525,116.373-83.689,261.813-172.851,385.828c-165.316,229.934-471.578,386.008-1099.156,146.411
		c13.905,10.275,27.599,20.303,41.306,30.344c603.682,246.409,903.028,122.42,1062.511-93.95
		C4891.484,2058.81,4935.657,1872.968,4966.467,1728.844z M4969.978,1727.288l-2.438,1.079
		c-30.835,144.305-75.006,330.622-181.857,475.588c-159.404,216.259-458.283,340.378-1060.286,95.589
		c13.59,9.948,27.037,19.734,40.421,29.447c587.646,253.862,881.908,154.217,1036.22-50.618
		c120.939-160.536,155.962-385.705,178.886-555.934C4977.372,1724.012,4973.724,1725.628,4969.978,1727.288z M4967.788,1727.217
		l1.804-0.798c3.936-1.747,7.761-3.441,11.478-5.086c0.758-5.621,1.5-11.182,2.233-16.681c-3.931,2.179-7.988,4.441-12.161,6.783
		C4970.04,1716.638,4968.925,1721.896,4967.788,1727.217z M4953.473,1733.557c4.55-2.01,8.94-3.956,13.24-5.863
		c1.129-5.273,2.235-10.486,3.327-15.639c-3.929,2.207-7.967,4.483-12.107,6.826
		C4956.467,1723.719,4954.981,1728.609,4953.473,1733.557z M4939.143,1739.883c4.519-1.986,8.875-3.913,13.178-5.815
		c1.49-4.89,2.961-9.725,4.411-14.506c-3.919,2.216-7.938,4.494-12.044,6.822
		C4942.864,1730.833,4941.016,1735.337,4939.143,1739.883z M4924.819,1746.165c4.444-1.943,8.815-3.86,13.069-5.733
		c1.848-4.478,3.667-8.91,5.463-13.292l-2.203,1.248l-9.744,5.522C4929.24,1737.952,4927.044,1742.037,4924.819,1746.165z
		 M4910.514,1752.389c4.365-1.892,8.705-3.775,12.893-5.604c2.179-4.04,4.329-8.041,6.45-11.997
		c-3.846,2.18-7.794,4.412-11.79,6.667C4915.581,1745.062,4913.073,1748.699,4910.514,1752.389z M4896.318,1758.514
		c4.248-1.823,8.446-3.63,12.54-5.404c2.473-3.567,4.911-7.092,7.323-10.592c-3.756,2.122-7.586,4.276-11.476,6.456
		C4901.956,1752.115,4899.132,1755.319,4896.318,1758.514z M4882.363,1764.483c4.044-1.72,8-3.412,11.924-5.096
		c2.671-3.027,5.309-6.03,7.923-9.011c-3.606,2.026-7.242,4.061-10.967,6.14C4888.319,1759.146,4885.365,1761.798,4882.363,1764.483
		z M4869.104,1770.102c3.561-1.502,7.042-2.981,10.532-4.462c2.654-2.371,5.304-4.738,7.904-7.071
		c-3.258,1.818-6.508,3.627-9.863,5.481C4874.823,1766.069,4872.017,1768.058,4869.104,1770.102z M4858.843,1774.393
		c2.025-0.844,4.092-1.701,6.088-2.539c1.775-1.241,3.559-2.485,5.302-3.712C4866.473,1770.212,4862.718,1772.28,4858.843,1774.393z
		 M0,1716.752c355.782-141.048,1374.854-455.39,2480.3,25.972c111.36,48.489,220.351,89.13,326.756,122.955
		c-105.503-40.251-214.5-87.63-327.156-143.376C1273.321,1125.222,335.117,1496.88,0,1675.138v-1.072
		c335.664-178.435,1273.906-549.613,2480.323,47.386c118.414,58.598,232.822,108.007,343.336,149.532
		c5.58,1.74,11.113,3.358,16.678,5.062c-114.958-48.954-234.98-106.8-360.453-175.036C1178.084,993.045,314.896,1411.57,0,1628.047
		v-1.152c315.553-216.715,1178.892-634.492,2480.337,73.28c128.296,69.772,250.929,128.736,368.229,178.372
		c6.903,2.091,13.828,4.251,20.703,6.286c-123.046-57.321-252.65-125.128-389.398-205.114
		C1090.225,866.896,295.055,1320.063,0,1575.205v-1.256c295.773-255.418,1091.228-707.567,2480.35,104.951
		c138.882,81.234,270.43,149.963,395.176,207.831c6.854,2.014,13.636,3.863,20.468,5.818
		c-130.481-65.462-268.932-142.875-416.131-234.12C1011.743,748.403,276.128,1221.399,0,1514.83v-1.396
		c276.898-293.712,1012.962-765.391,2480.36,144.189c148.799,92.234,288.683,170.381,420.398,236.281
		c7.292,2.076,14.605,4.203,21.868,6.217c-137.907-73.576-285.173-160.545-442.774-262.978
		C944.562,639.283,258.659,1114.955,0,1444.867v-1.522c259.425-330.156,945.895-804.331,2480.368,193
		c159.01,103.349,307.523,190.999,446.482,264.978c7.115,1.96,14.182,3.8,21.272,5.699
		c-145.003-81.525-300.75-177.898-468.277-291.166C891.563,541.971,243.74,1000.266,0,1362.633v-1.737
		c244.554-362.51,893.124-819.017,2480.377,254.171c168.702,114.067,325.487,211.03,471.346,292.908
		c7.421,1.98,14.853,3.983,22.247,5.897c-152.258-89.505-316.512-195.129-494.133-319.304
		C855.089,458.68,232.552,878.054,0,1265.697v-1.897c233.37-387.638,856.744-805.12,2480.381,329.99
		c178.734,124.956,343.932,231.129,496.979,320.983c7.176,1.846,14.315,3.623,21.464,5.409
		c-159.189-97.31-331.764-212.197-518.99-346.9C837.009,391.337,226.496,750.458,0,1152.397v-2.051
		c227.327-401.746,838.747-758.93,2480.387,422.164c188.239,135.432,361.631,250.796,521.516,348.432
		c7.363,1.834,14.722,3.656,22.057,5.428c-166.287-105.157-347.107-229.046-544.129-374.37
		C837.278,340.465,226.638,621.475,0,1023.339v-2.441c227.53-401.353,839.219-680.183,2480.391,530.334
		c197.96,146.014,379.548,270.382,546.465,375.848c7.242,1.742,14.474,3.458,21.691,5.137
		c-173.194-112.883-362.199-245.82-568.722-401.506C852.975,304.303,233.068,496.338,0,882.463v-2.372
		c234.004-385.463,854.971-575.477,2480.395,649.86c207.348,156.308,397.041,289.702,570.781,402.863
		c7.225,1.675,14.43,3.304,21.626,4.915c-180.032-120.536-377.108-262.404-592.979-428.304
		C880.182,280.066,245.195,379.599,0,735.581v-2.086c245.974-355.359,881.727-453.438,2480.397,775.177
		c216.696,166.535,414.423,308.824,594.988,429.649c7.275,1.624,14.567,3.276,21.813,4.84
		c-186.955-128.207-392.059-278.861-617.379-455.022C914.167,264.082,261.576,274.065,0,588.967v-2.006
		c262.314-314.232,915.587-322.972,2480.402,900.43c226.065,176.741,431.763,327.798,619.191,456.27
		c7.159,1.537,14.28,2.994,21.409,4.472c-193.714-135.761-406.697-295.108-641.186-481.279
		C951.064,253.138,280.625,180.453,0,447.451v-1.938c281.328-266.305,952.378-192.548,2480.406,1020.598
		c235.206,186.734,448.762,346.485,642.924,482.505c7.186,1.485,14.411,3.054,21.563,4.477
		c-200.495-143.294-421.417-311.374-665.081-507.525C988.288,244.891,301.018,98.054,0,313.927v-1.822
		c301.662-215.212,989.451-67.497,2480.408,1132.724c244.32,196.68,465.769,365.143,666.673,508.681
		c7.051,1.399,14.042,2.675,21.064,4.012c-207.11-150.706-435.776-327.362-688.334-533.235
		C1024.034,237.586,321.686,25.59,0,189.931v-1.81c322.32-163.657,1025.18,49.171,2480.41,1235.427
		c253.192,206.394,482.376,383.435,689.876,534.382c7.082,1.345,14.199,2.762,21.255,4.049
		c-213.771-158.118-450.245-343.375-711.731-558.978C1057.656,230.391,342.035-38.551,0,75.472v-1.696
		C342.64-39.609,1058.741,230.055,2480.412,1402.268c262.121,216.124,499.092,401.753,713.244,560.113
		c6.998,1.275,13.928,2.42,20.897,3.637c-220.367-165.468-464.444-359.089-734.747-584.3C1436.495,512.444,766.794,116.16,344.402,0
		h4.556c422.963,118.006,1091.841,514.791,2131.458,1380.985c270.905,225.717,515.436,419.68,736.164,585.384
		c7.007,1.216,14.02,2.456,20.993,3.615c-226.978-172.797-478.655-374.76-757.767-609.553
		C1580.166,603.646,952.987,188.675,521.152,0h2.885c431.999,189.464,1058.653,604.529,1956.38,1359.705
		c279.701,235.287,531.826,437.592,759.152,610.625c6.927,1.149,13.823,2.238,20.722,3.334
		c-233.514-180.058-492.706-390.283-780.487-634.516C1661.343,644.548,1064.504,225.656,633.072,0h2.414
		c431.473,226.134,1027.892,645.027,1844.932,1338.423c288.335,244.703,547.948,455.253,781.787,635.537
		c6.892,1.089,13.771,2.151,20.635,3.187c-240.01-187.274-506.667-405.702-803.038-659.283
		C1720.714,668.372,1148.473,249.603,720.5,0h1.85c428.023,249.881,999.753,668.314,1758.07,1317.143
		c296.913,254.043,563.986,472.802,804.309,660.297c6.859,1.031,13.721,2.069,20.549,3.044
		c-246.483-194.45-520.578-421.042-825.481-683.905C1767.047,682.105,1216.186,266.149,792.91,0h1.803
		c423.276,266.36,973.678,682.01,1685.709,1295.86c305.413,263.304,579.898,490.213,826.675,684.873
		c708.221,100.84,1255.961-83.644,1543.021-202.699c9.271-5.021,18.326-9.97,27.051-14.79c8.427-5.951,16.622-11.785,24.514-17.44
		c7.521-6.814,14.773-13.432,21.799-19.845l4.992-5.752c4.86-5.604,9.594-11.068,14.211-16.37
		c5.742-8.377,11.29-16.44,16.667-24.143c4.884-9.019,9.622-17.65,14.234-25.837c4.069-9.539,8.042-18.603,11.955-27.138
		c3.317-9.938,6.604-19.315,9.892-28.068c1.508-5.815,3.027-11.419,4.567-16.798v3.448c-0.481,1.723-0.965,3.468-1.442,5.234
		c0.477-1.216,0.96-2.419,1.442-3.61v7.54l-0.684,4.082l0.684-1.281v1.997l-1.167,2.229c-0.748,4.578-1.486,9.263-2.215,14.042
		c1.131-1.728,2.258-3.415,3.381-5.065v1.677c-1.233,1.829-2.475,3.707-3.723,5.628c-0.737,4.854-1.469,9.803-2.2,14.848
		c2-2.477,3.971-4.871,5.923-7.174v1.464c-2.038,2.424-4.1,4.943-6.188,7.554c-0.727,5.053-1.452,10.205-2.177,15.444
		c2.84-2.89,5.63-5.656,8.365-8.29v1.316c-2.806,2.715-5.665,5.565-8.584,8.544c-0.723,5.219-1.446,10.528-2.173,15.915
		c3.34-2.783,6.592-5.44,9.771-7.968c0.327-4.896,0.654-9.73,0.985-14.498v14.928l-0.063,0.051
		c-0.377,5.645-0.75,11.373-1.127,17.176l1.189-0.777v1.133l-1.269,0.83l-0.841,13.029l-0.288,4.448l2.398-1.29v1.079l-2.469,1.327
		c-0.379,5.842-0.761,11.743-1.152,17.715l3.621-1.587v1.038l-3.69,1.619c-12.807,195.274-34.771,459.159-167.898,632.5
		c-149.774,195.02-440.291,275.241-1016.511,14.126c12.98,9.314,25.872,18.522,38.654,27.611
		c573.677,273.491,862.977,209.77,1009.127,22.702c90.471-115.797,126.085-278.9,140.317-438.6v10.359
		c-14.853,156.54-50.898,315.333-139.571,428.826c-145.995,186.865-434.56,250.859-1005.842-20.409
		c12.52,8.883,24.849,17.551,37.185,26.229c572.876,285.079,861.88,235.741,1004.885,55.496
		c50.796-64.029,83.173-144.583,103.343-232.511v4.252c-20.261,86.481-52.482,165.68-102.601,228.85
		c-142.796,179.986-430.84,229.723-1000.85-52.724c12.086,8.491,24.091,16.891,35.985,25.161
		c575.018,297.598,864.656,260.955,1005.006,86.483c25.464-31.654,46-67.865,62.459-107.417v2.497
		c-16.342,38.807-36.652,74.355-61.718,105.515c-140.08,174.13-428.461,211.33-999.975-83.081
		c11.53,8.017,23.066,16.034,34.397,23.826c579.616,311.006,870.743,285.866,1008.869,116.303
		c6.488-7.964,12.599-16.283,18.426-24.864v1.691c-5.608,8.193-11.476,16.145-17.69,23.773
		c-137.78,169.14-427.375,194.955-1002.779-112.235c11.184,7.656,22.253,15.183,33.3,22.681
		c548.307,304.05,840.323,310.871,987.17,174.98v1.273c-146.588,134.819-436.824,128.319-979.693-171.156
		c10.565,7.153,20.995,14.146,31.416,21.13C4551.645,2814.81,4840.671,2857.137,5000,2767.1v1.05
		c-158.602,89.155-445.016,47.792-938.505-232.688c9.367,6.27,18.703,12.508,27.922,18.609
		c458.908,270.113,742.308,338.306,910.583,286.116v0.941c-166.808,51.473-446.266-14.902-896.701-277.939
		c7.911,5.208,15.857,10.454,23.676,15.56C4549.846,2834.34,4825.76,2921.44,5000,2900.462v0.847
		c-171.511,20.532-441.172-63.311-851.974-308.896c5.65,3.649,11.275,7.269,16.895,10.884
		c267.565,165.684,477.103,265.056,639.688,312.702h-2.921c-153.658-45.431-348.953-136.753-595.117-286.142
		C4418.748,2764,4594.859,2857.047,4740.266,2916h-2.165c-154.556-62.848-343.665-164.092-573.647-311.982
		c-24.199-14.978-48.85-30.483-73.962-46.514c-23.564-14.483-47.461-29.358-71.908-44.862
		c-22.247-13.558-44.908-27.596-67.956-42.074c-23.853-14.378-48.244-29.376-73.016-44.82c-23.743-14.173-47.961-28.9-72.564-44.078
		c-23.603-13.94-47.617-28.363-72.029-43.257c-23.439-13.679-47.198-27.746-71.435-42.372
		c-23.203-13.364-46.677-27.054-70.651-41.343c-22.839-12.96-45.913-26.204-69.485-40.053c-22.428-12.508-45.1-25.314-68.23-38.679
		c-21.845-11.944-43.956-24.215-66.453-36.968c-22.247-11.891-44.873-24.254-67.783-36.975
		c-21.966-11.443-44.317-23.376-66.885-35.591c-21.628-10.954-43.486-22.209-65.676-33.902
		c-21.553-10.536-43.425-21.506-65.541-32.804c-20.503-9.643-41.212-19.569-62.188-29.875
		c-20.099-8.993-40.462-18.372-60.959-27.954c-20.295-8.556-40.769-17.396-61.47-26.585c-19.124-7.492-38.439-15.306-57.853-23.288
		c-18.263-6.529-36.604-13.205-55.076-20.146c-111.668-34.838-226.245-77.263-343.413-128.285
		C1374.416,1262.208,355.329,1576.844,0,1717.776V1716.752z"/>
</g>
</svg>
